<svg width="31" height="31" viewBox="0 0 31 31" fill="none" xmlns="http://www.w3.org/2000/svg">
<path d="M27.0174 0.100342C27.3243 0.100411 27.5721 0.336295 27.5721 0.641357V11.5701H29.7449C29.7631 11.5701 29.778 11.5745 29.785 11.5769C29.7885 11.5781 29.7911 11.5802 29.7928 11.5808H29.7938C29.8117 11.5817 29.8302 11.5831 29.8475 11.5867L29.9031 11.6023L29.9168 11.6062L29.9158 11.6072C29.9263 11.6122 29.9463 11.6189 29.9764 11.6287C30.0121 11.6403 30.0447 11.6614 30.0711 11.6833H30.0721C30.0915 11.6959 30.1235 11.7182 30.1522 11.7498C30.1594 11.7534 30.1734 11.7617 30.1873 11.7751C30.2016 11.789 30.21 11.8039 30.2147 11.8142C30.2191 11.824 30.2222 11.8334 30.2234 11.8376L30.2254 11.8455L30.2283 11.8513L30.243 11.8855L30.2674 11.9382L30.2703 11.9451L30.2693 11.946C30.2752 11.969 30.279 11.9896 30.2811 12.0027C30.2833 12.0169 30.2846 12.0221 30.2859 12.0261L30.2908 12.0417V12.0535C30.291 12.0544 30.2917 12.0561 30.2928 12.0603C30.2938 12.0642 30.2952 12.072 30.2967 12.0798C30.2983 12.0881 30.2996 12.0994 30.2996 12.1121V29.7585C30.2996 30.0637 30.0519 30.2996 29.7449 30.2996H0.646301C0.340162 30.2996 0.0890401 30.0633 0.100403 29.7546V12.1121C0.100403 12.0994 0.101758 12.0881 0.103333 12.0798C0.104865 12.0719 0.107214 12.0642 0.108215 12.0603L0.109192 12.0583C0.109279 12.0152 0.122619 11.9674 0.132629 11.9382C0.140632 11.9149 0.153276 11.881 0.175598 11.8455H0.174622C0.175645 11.8435 0.176515 11.8425 0.178528 11.8367C0.1802 11.8318 0.18351 11.825 0.187317 11.8162C0.190629 11.8049 0.195482 11.7933 0.202942 11.783L0.230286 11.7576L0.231262 11.7585C0.25917 11.7247 0.291523 11.7003 0.313293 11.6863C0.33187 11.6686 0.3625 11.6428 0.406067 11.6287C0.433541 11.6198 0.46062 11.6112 0.488098 11.6023L0.494934 11.5994C0.520178 11.5932 0.566261 11.5799 0.609192 11.5798C0.601043 11.5799 0.594544 11.5818 0.594543 11.5818C0.595436 11.5814 0.596092 11.5818 0.59845 11.5808C0.600091 11.5802 0.60277 11.5781 0.606262 11.5769C0.613211 11.5745 0.628142 11.5701 0.646301 11.5701H2.81915V0.641357C2.81915 0.336292 3.06691 0.100407 3.37384 0.100342H27.0174ZM15.5281 23.1316L15.5291 23.1326C15.428 23.2089 15.3143 23.241 15.1951 23.241C15.0761 23.2409 14.9631 23.2088 14.8621 23.1326V23.1316L1.20099 13.1902V29.2175H29.1902V13.1902L15.5281 23.1316ZM3.92853 13.825L15.1951 22.0281L19.7108 18.7371L26.4627 13.825V1.18237H3.92853V13.825ZM23.3797 14.2175C23.6866 14.2175 23.9343 14.4535 23.9344 14.7585C23.9344 15.0637 23.6867 15.2996 23.3797 15.2996H7.01154C6.70455 15.2996 6.45685 15.0637 6.45685 14.7585C6.45697 14.4535 6.70463 14.2175 7.01154 14.2175H23.3797ZM2.81915 13.0173V12.6531H2.3172L2.81915 13.0173ZM27.5721 13.0173L28.074 12.6531H27.5721V13.0173ZM23.3797 10.6882C23.6866 10.6882 23.9343 10.9242 23.9344 11.2292C23.9344 11.5344 23.6867 11.7703 23.3797 11.7703H7.01154C6.70455 11.7703 6.45685 11.5344 6.45685 11.2292C6.45691 10.9242 6.70459 10.6882 7.01154 10.6882H23.3797ZM30.159 11.7585L30.1609 11.7576C30.158 11.7547 30.1546 11.7524 30.1522 11.7507C30.1545 11.7533 30.1567 11.7558 30.159 11.7585ZM23.3797 7.15894C23.6867 7.15894 23.9344 7.39484 23.9344 7.69995C23.9344 8.00506 23.6867 8.24097 23.3797 8.24097H7.01154C6.70455 8.24097 6.45685 8.00506 6.45685 7.69995C6.45685 7.39484 6.70455 7.15894 7.01154 7.15894H23.3797ZM17.9236 3.62964C18.2306 3.62964 18.4783 3.86555 18.4783 4.17065C18.4783 4.47571 18.2306 4.71167 17.9236 4.71167H7.01154C6.70459 4.71167 6.45691 4.47571 6.45685 4.17065C6.45685 3.86555 6.70455 3.62964 7.01154 3.62964H17.9236Z" fill="white" stroke="white" stroke-width="0.2"/>
</svg>
